<?xml version="1.0" encoding="utf-8"?>

<!DOCTYPE svg PUBLIC "-//W3C//DTD SVG 1.0//EN" "http://www.w3.org/TR/2001/REC-SVG-20010904/DTD/svg10.dtd">
<!-- Uploaded to: SVG Repo, www.svgrepo.com, Generator: SVG Repo Mixer Tools -->
<svg version="1.0" id="Layer_1" xmlns="http://www.w3.org/2000/svg" xmlns:xlink="http://www.w3.org/1999/xlink" 
	 width="800px" height="800px" viewBox="0 0 64 64" enable-background="new 0 0 64 64" xml:space="preserve">
<g>
	<path fill="#231F20" d="M37.933,2.5C36.42,0.856,34.369-0.012,32-0.012S27.58,0.856,26.067,2.5
		c-3.593,3.905-3.126,10.873-3.055,11.709l4.995,44.96c0.218,2.398,1.536,4.819,3.992,4.819c2.457,0,3.775-2.421,3.987-4.779
		l5.006-45.055C41.059,13.373,41.525,6.405,37.933,2.5z"/>
	<path fill="#231F20" d="M25.04,50.995l-4.289,3.432C20.276,54.806,20,55.381,20,55.988v2c0,1.104,0.896,2,2,2h4.049
		c-0.03-0.197-0.058-0.396-0.076-0.599L25.04,50.995z"/>
	<path fill="#231F20" d="M38.872,50.925l-0.94,8.463c-0.019,0.204-0.046,0.403-0.075,0.601H42c1.104,0,2-0.896,2-2v-2
		c0-0.607-0.276-1.183-0.751-1.562L38.872,50.925z"/>
	<path fill="#231F20" d="M40.531,35.988H62c1.104,0,2-0.896,2-2v-2H40.976L40.531,35.988z"/>
	<path fill="#231F20" d="M62.743,26.131l-20.218-8.087l-1.327,11.944H64v-2C64,27.171,63.502,26.435,62.743,26.131z"/>
	<path fill="#231F20" d="M21.418,18.395L1.205,27.153C0.474,27.47,0,28.191,0,28.988v1h22.706L21.418,18.395z"/>
	<path fill="#231F20" d="M22.929,31.988H0v2c0,1.104,0.896,2,2,2h21.373L22.929,31.988z"/>
</g>
</svg>